# xmcd
#
# Track frame offsets: 
#        150
#        10942
#        24162
#        35947
#        50572
#        60805
#        74727
#        85155
#        98047
#        109045
#        120237
#        132005
#        146407
#        157222
#        170820
#        183240
#        195472
#        205805
#        219317
#        230342
#        241875
#
# Disc length: 3364 seconds
#
# Revision: 3
# Processed by: cddbd v1.5.2PL0 Copyright (c) Steve Scherf et al.
# Submitted via: ExactAudioCopyFreeDBPlugin 1.0
#
DISCID=1c0d2215
DTITLE=Various Artist - Robert Johnson And Heroes Of The Delta Blues
DYEAR=1900
DGENRE=Blues
TTITLE0=Robert Johnson - From Four Till Late
TTITLE1=Leadbelly - Rock Island Line
TTITLE2=Robert Johnson - Hellhound On My Trail
TTITLE3=Lonnie Johnson - Guitar Blues
TTITLE4=Robert Johnson - Little Queen Of Spades
TTITLE5=Blind Boy Fuller - Rag Mama Rag
TTITLE6=Robert Johnson - Malted Milk
TTITLE7=Bukka White - Special Agent
TTITLE8=Robert Johnson - Drunken Hearted Man
TTITLE9=Blind Willie McTell - Statesboro Blues
TTITLE10=Robert Johnson - Me And The Devil Blues
TTITLE11=Barbeque Bob - Going Up The Country
TTITLE12=Robert Johnson - Stop Breakin' Down Blues
TTITLE13=Bukka White - Shake 'em On Down
TTITLE14=Robert Johnson - Travelling Riverside Blues
TTITLE15=Brownie McGhee - Back Door Stranger
TTITLE16=Robert Johon - Honeymoon Blues
TTITLE17=Big Joe Turner - Goin' To Chicago Blues
TTITLE18=Robert Johnson - Love In Vain
TTITLE19=Champion Jack Dupree - That's Alright
TTITLE20=Robert Johnson - Milkcow's Calf Blues
EXTD=
EXTT0=
EXTT1=
EXTT2=
EXTT3=
EXTT4=
EXTT5=
EXTT6=
EXTT7=
EXTT8=
EXTT9=
EXTT10=
EXTT11=
EXTT12=
EXTT13=
EXTT14=
EXTT15=
EXTT16=
EXTT17=
EXTT18=
EXTT19=
EXTT20=
PLAYORDER=
